<svg id="Artboard_13" data-name="Artboard 13" xmlns="http://www.w3.org/2000/svg" viewBox="0 0 504 504"><defs><style>.cls-1{fill:#fff;}.cls-2{fill:#231f20;}.cls-3{fill:#faa61a;}</style></defs><circle class="cls-1" cx="252.09" cy="252" r="219.08"/><path class="cls-2" d="M251.91,473.58A221.58,221.58,0,0,1,95.23,95.32,221.58,221.58,0,1,1,408.59,408.68,220.12,220.12,0,0,1,251.91,473.58Zm0-438.16C132.49,35.42,35.33,132.58,35.33,252s97.16,216.58,216.58,216.58S468.49,371.42,468.49,252,371.34,35.42,251.91,35.42Z"/><path class="cls-2" d="M166,96.92h4.72l11.07,17v-17h4.92v25.86H182l-11.05-17v17H166Z"/><path class="cls-2" d="M200.49,96.92h5l10,25.86h-5.12l-2-5.32H197.74l-2.1,5.32h-5.12Zm2.53,6.86-3.47,8.88h6.92Z"/><path class="cls-2" d="M216.69,96.92H231v4.86h-4.71v21h-5v-21h-4.58Z"/><path class="cls-2" d="M234,96.92h4.89v25.86H234Z"/><path class="cls-2" d="M256.63,96.27a12.84,12.84,0,0,1,9.44,4,13.22,13.22,0,0,1,3.95,9.68,13,13,0,0,1-3.9,9.58,13.51,13.51,0,0,1-19.13-.1,13.59,13.59,0,0,1,9.64-23.14Zm-.05,4.82a8.11,8.11,0,0,0-6,2.5,8.68,8.68,0,0,0-2.44,6.34,8.27,8.27,0,0,0,3.08,6.79,8.42,8.42,0,0,0,5.49,2,8,8,0,0,0,6-2.53,9.12,9.12,0,0,0,0-12.49A8.09,8.09,0,0,0,256.58,101.09Z"/><path class="cls-2" d="M274.68,96.92h4.72l11.06,17v-17h4.92v25.86h-4.73l-11-17v17h-4.92Z"/><path class="cls-2" d="M309.18,96.92h5l9.95,25.86H319l-2-5.32H306.43l-2.11,5.32h-5.11Zm2.53,6.86-3.47,8.88h6.91Z"/><path class="cls-2" d="M327.92,96.92h4.92v21.17H340v4.69H327.92Z"/><path class="cls-2" d="M144.71,144.67,141.27,148a10.68,10.68,0,0,0-7.9-3.71,8.64,8.64,0,0,0-8.78,8.78,9.23,9.23,0,0,0,1.12,4.59,8,8,0,0,0,3.18,3.15,9.83,9.83,0,0,0,8.48.34,14,14,0,0,0,3.9-2.91l3.34,3.48a18.21,18.21,0,0,1-5.42,3.88,14.79,14.79,0,0,1-5.81,1.08,13.42,13.42,0,0,1-9.88-3.82,13.25,13.25,0,0,1-3.84-9.8,13.45,13.45,0,0,1,1.75-6.87,13,13,0,0,1,5-4.84,14.16,14.16,0,0,1,7-1.83,14.58,14.58,0,0,1,6.16,1.36A14.75,14.75,0,0,1,144.71,144.67Z"/><path class="cls-2" d="M147.18,140.12h5.29l4.82,9.31,4.8-9.31h5.22l-7.57,14.67V166h-5V154.79Z"/><path class="cls-2" d="M171.34,166V140.12h4.07a21.21,21.21,0,0,1,5.17.46,6.92,6.92,0,0,1,3.7,2.29,6,6,0,0,1,1.37,3.93,5.85,5.85,0,0,1-.62,2.69,6.81,6.81,0,0,1-2,2.25,8.1,8.1,0,0,1,3.44,2.77,7,7,0,0,1,1.09,3.93,7.31,7.31,0,0,1-1.12,4,7.12,7.12,0,0,1-2.91,2.68,11,11,0,0,1-4.91.89Zm4.93-21.16v5.45h1.07a4,4,0,0,0,2.68-.76,2.57,2.57,0,0,0,.87-2,2.42,2.42,0,0,0-.83-1.93,3.81,3.81,0,0,0-2.52-.71Zm0,9.84v6.63h1.23c2,0,3.42-.26,4.13-.77a2.62,2.62,0,0,0,1.07-2.25,3.15,3.15,0,0,0-1.25-2.64,6.88,6.88,0,0,0-4.16-1Z"/><path class="cls-2" d="M192.24,140.12h14.12v4.82h-9.23v4.68h9.23v4.73h-9.23v6.8h9.23V166H192.24Z"/><path class="cls-2" d="M211.28,140.12h5.22a17.21,17.21,0,0,1,6.1.77,6.28,6.28,0,0,1,2.92,2.54,7.74,7.74,0,0,1,1.11,4.2,7.17,7.17,0,0,1-1.22,4.26,7.45,7.45,0,0,1-3.69,2.6L227.85,166h-5.38L216.65,155h-.45V166h-4.92Zm4.92,10.11h1.55a6,6,0,0,0,3.23-.61,2.34,2.34,0,0,0,.88-2.05,2.41,2.41,0,0,0-.44-1.47,2.39,2.39,0,0,0-1.17-.9,8.6,8.6,0,0,0-2.7-.28H216.2Z"/><path class="cls-2" d="M245.4,143.64l-3.65,3.22c-1.27-1.78-2.58-2.67-3.9-2.67a2.41,2.41,0,0,0-1.59.51,1.53,1.53,0,0,0-.62,1.17,2,2,0,0,0,.44,1.23,33.65,33.65,0,0,0,3.61,3.33q2.82,2.35,3.42,3a10,10,0,0,1,2.12,2.89,7.15,7.15,0,0,1,.63,3,6.94,6.94,0,0,1-2.2,5.26,8,8,0,0,1-5.74,2.07,8.53,8.53,0,0,1-4.81-1.35A10.63,10.63,0,0,1,229.6,161l4.13-2.5c1.25,2.28,2.68,3.43,4.3,3.43a3.16,3.16,0,0,0,2.13-.74,2.18,2.18,0,0,0,.86-1.71,2.88,2.88,0,0,0-.65-1.75,18,18,0,0,0-2.87-2.69,28.86,28.86,0,0,1-5.46-5.32,6.76,6.76,0,0,1-1.23-3.74,6.09,6.09,0,0,1,2.05-4.61,7.13,7.13,0,0,1,5.06-1.93,8,8,0,0,1,3.69.9A13.45,13.45,0,0,1,245.4,143.64Z"/><path class="cls-2" d="M250.57,140.12h14.11v4.82h-9.22v4.68h9.22v4.73h-9.22v6.8h9.22V166H250.57Z"/><path class="cls-2" d="M293,144.67,289.59,148a10.66,10.66,0,0,0-7.9-3.71,8.66,8.66,0,0,0-8.78,8.78,9.34,9.34,0,0,0,1.12,4.59,8,8,0,0,0,3.18,3.15,9.85,9.85,0,0,0,8.49.34,13.82,13.82,0,0,0,3.89-2.91l3.34,3.48a18.18,18.18,0,0,1-5.41,3.88,14.8,14.8,0,0,1-5.82,1.08,13.39,13.39,0,0,1-9.87-3.82,14.4,14.4,0,0,1-2.09-16.67,12.9,12.9,0,0,1,5-4.84,14.09,14.09,0,0,1,7-1.83,14.54,14.54,0,0,1,6.16,1.36A14.7,14.7,0,0,1,293,144.67Z"/><path class="cls-2" d="M297.17,140.12h4.94v16.73a8.44,8.44,0,0,0,.38,3.05,3,3,0,0,0,1.24,1.43,3.9,3.9,0,0,0,2.1.54,4.11,4.11,0,0,0,2.25-.6,3.17,3.17,0,0,0,1.3-1.52,11.27,11.27,0,0,0,.36-3.52V140.12h4.94v15.42a22.59,22.59,0,0,1-.44,5.42,7.83,7.83,0,0,1-1.68,2.91A7.92,7.92,0,0,1,309.7,166a9.71,9.71,0,0,1-3.76.67,9.12,9.12,0,0,1-4.9-1.29,7.6,7.6,0,0,1-3-3.23,17.31,17.31,0,0,1-.89-6.57Z"/><path class="cls-2" d="M320.72,140.12h5.22a17.21,17.21,0,0,1,6.1.77,6.28,6.28,0,0,1,2.92,2.54,7.74,7.74,0,0,1,1.11,4.2,7.17,7.17,0,0,1-1.22,4.26,7.47,7.47,0,0,1-3.68,2.6L337.29,166h-5.38L326.09,155h-.45V166h-4.92Zm4.92,10.11h1.55a6,6,0,0,0,3.23-.61,2.34,2.34,0,0,0,.88-2.05,2.42,2.42,0,0,0-1.61-2.37,8.6,8.6,0,0,0-2.7-.28h-1.35Z"/><path class="cls-2" d="M340.92,140.12h4.89V166h-4.89Z"/><path class="cls-2" d="M348.79,140.12h14.3V145h-4.71v21h-5V145h-4.59Z"/><path class="cls-2" d="M364.62,140.12h5.29l4.82,9.31,4.8-9.31h5.22l-7.57,14.67V166h-4.95V154.79Z"/><path class="cls-2" d="M160.93,187.87l-3.44,3.28a10.7,10.7,0,0,0-7.91-3.71,8.66,8.66,0,0,0-8.78,8.78,9.24,9.24,0,0,0,1.13,4.59A7.94,7.94,0,0,0,145.1,204a9.85,9.85,0,0,0,8.49.34,14,14,0,0,0,3.9-2.91l3.33,3.48a18.18,18.18,0,0,1-5.41,3.88,14.8,14.8,0,0,1-5.82,1.08,13.39,13.39,0,0,1-9.87-3.82,14.4,14.4,0,0,1-2.09-16.67,12.9,12.9,0,0,1,5-4.84,14.09,14.09,0,0,1,7-1.83,14.54,14.54,0,0,1,6.16,1.36A14.7,14.7,0,0,1,160.93,187.87Z"/><path class="cls-2" d="M177.44,182.67a12.84,12.84,0,0,1,9.44,4,13.2,13.2,0,0,1,4,9.68,13,13,0,0,1-3.9,9.58,13.51,13.51,0,0,1-19.13-.1,13.59,13.59,0,0,1,9.64-23.14Zm-.05,4.82a8.09,8.09,0,0,0-6,2.5,8.65,8.65,0,0,0-2.45,6.34,8.3,8.3,0,0,0,3.08,6.79,8.42,8.42,0,0,0,5.49,1.95,8,8,0,0,0,6-2.53,9.12,9.12,0,0,0,0-12.49A8.09,8.09,0,0,0,177.39,187.49Z"/><path class="cls-2" d="M195.49,183.32h4.72l11.06,17v-17h4.92v25.86h-4.73l-11.05-17v17h-4.92Z"/><path class="cls-2" d="M235.67,186.84,232,190.06c-1.28-1.78-2.59-2.68-3.91-2.68a2.41,2.41,0,0,0-1.59.52,1.52,1.52,0,0,0-.61,1.17,1.93,1.93,0,0,0,.44,1.23,31.43,31.43,0,0,0,3.6,3.32q2.82,2.37,3.42,3a10,10,0,0,1,2.12,2.89,7.15,7.15,0,0,1,.63,3,6.94,6.94,0,0,1-2.2,5.26,8,8,0,0,1-5.74,2.07,8.55,8.55,0,0,1-4.81-1.35,10.6,10.6,0,0,1-3.51-4.26l4.13-2.49c1.25,2.28,2.68,3.43,4.3,3.43a3.16,3.16,0,0,0,2.13-.74,2.18,2.18,0,0,0,.86-1.71,2.88,2.88,0,0,0-.65-1.75,18,18,0,0,0-2.87-2.69,29.18,29.18,0,0,1-5.46-5.32,6.76,6.76,0,0,1-1.23-3.74,6.09,6.09,0,0,1,2-4.61,7.13,7.13,0,0,1,5.06-1.93,8,8,0,0,1,3.69.9A13.45,13.45,0,0,1,235.67,186.84Z"/><path class="cls-2" d="M253,182.67a12.86,12.86,0,0,1,9.44,4,13.2,13.2,0,0,1,3.95,9.68,13,13,0,0,1-3.9,9.58,13.51,13.51,0,0,1-19.13-.1A13.59,13.59,0,0,1,253,182.67Zm-.05,4.82a8.1,8.1,0,0,0-6,2.5,8.68,8.68,0,0,0-2.44,6.34,8.29,8.29,0,0,0,3.07,6.79,8.46,8.46,0,0,0,5.49,1.95,8,8,0,0,0,6-2.53,9.13,9.13,0,0,0,0-12.49A8.06,8.06,0,0,0,253,187.49Z"/><path class="cls-2" d="M271.39,183.32h5.21a17.28,17.28,0,0,1,6.11.77,6.28,6.28,0,0,1,2.92,2.54,7.74,7.74,0,0,1,1.11,4.2,7.11,7.11,0,0,1-1.23,4.26,7.38,7.38,0,0,1-3.68,2.6L288,209.18h-5.38l-5.82-11h-.45v11h-4.92Zm4.92,10.11h1.54a6,6,0,0,0,3.24-.62,2.3,2.3,0,0,0,.88-2,2.44,2.44,0,0,0-.44-1.47,2.39,2.39,0,0,0-1.17-.9,8.6,8.6,0,0,0-2.7-.28h-1.35Z"/><path class="cls-2" d="M289.39,183.32h14.29v4.86H299v21h-5v-21h-4.59Z"/><path class="cls-2" d="M306.7,183.32h4.89v25.86H306.7Z"/><path class="cls-2" d="M317,183.32h4.94V200a8.7,8.7,0,0,0,.38,3.06,3,3,0,0,0,1.25,1.43,3.9,3.9,0,0,0,2.1.54,4.07,4.07,0,0,0,2.24-.6,3.11,3.11,0,0,0,1.3-1.52,11.27,11.27,0,0,0,.36-3.52V183.32h4.94v15.42a22.43,22.43,0,0,1-.44,5.41,7.6,7.6,0,0,1-1.68,2.92,7.88,7.88,0,0,1-2.85,2.09,9.76,9.76,0,0,1-3.77.67,9.1,9.1,0,0,1-4.89-1.29,7.53,7.53,0,0,1-3-3.23q-.9-2-.9-6.57Z"/><path class="cls-2" d="M342.68,183.32h4.8l6,18,6-18h4.79l4.34,25.86h-4.76l-2.77-16.33-5.5,16.33h-4.33l-5.45-16.33L343,209.18h-4.8Z"/><path class="cls-2" d="M161,276.22l-3.45,3.29a10.64,10.64,0,0,0-7.9-3.72,8.67,8.67,0,0,0-8.78,8.78,9.25,9.25,0,0,0,1.12,4.6,8.16,8.16,0,0,0,3.18,3.15,9.25,9.25,0,0,0,4.57,1.14,9.43,9.43,0,0,0,3.91-.8,14.1,14.1,0,0,0,3.9-2.91l3.34,3.48a18.37,18.37,0,0,1-5.41,3.88,14.8,14.8,0,0,1-5.82,1.08,13.39,13.39,0,0,1-9.87-3.83,13.21,13.21,0,0,1-3.84-9.8,13.4,13.4,0,0,1,1.75-6.87,13,13,0,0,1,5-4.83,14.09,14.09,0,0,1,7-1.83A14.92,14.92,0,0,1,161,276.22Z"/><path class="cls-2" d="M177.53,271a12.85,12.85,0,0,1,9.44,4,13.24,13.24,0,0,1,3.95,9.69,13.08,13.08,0,0,1-3.9,9.58,13.5,13.5,0,0,1-19.13-.11A13.59,13.59,0,0,1,177.53,271Zm-.05,4.82a8.12,8.12,0,0,0-6,2.49,8.7,8.7,0,0,0-2.44,6.35,8.23,8.23,0,0,0,3.08,6.78,8.42,8.42,0,0,0,5.49,1.95,8,8,0,0,0,6-2.53,9.13,9.13,0,0,0,0-12.49A8.09,8.09,0,0,0,177.48,275.85Z"/><path class="cls-2" d="M195.57,271.68h4.73l11.06,17v-17h4.92v25.86h-4.73l-11.05-17v17h-4.93Z"/><path class="cls-2" d="M235.76,275.2l-3.65,3.21q-1.92-2.67-3.91-2.67a2.35,2.35,0,0,0-1.58.52,1.5,1.5,0,0,0-.62,1.17,2,2,0,0,0,.44,1.23,34.05,34.05,0,0,0,3.61,3.32q2.82,2.36,3.42,3a10.33,10.33,0,0,1,2.12,2.89,7.19,7.19,0,0,1,.62,3,6.89,6.89,0,0,1-2.2,5.25,8,8,0,0,1-5.73,2.08,8.46,8.46,0,0,1-4.81-1.36,10.63,10.63,0,0,1-3.51-4.25l4.13-2.5q1.88,3.44,4.3,3.43a3.14,3.14,0,0,0,2.13-.74,2.2,2.2,0,0,0,.86-1.7,3,3,0,0,0-.65-1.76,19,19,0,0,0-2.87-2.69,28.86,28.86,0,0,1-5.46-5.32,6.73,6.73,0,0,1-1.23-3.73,6.12,6.12,0,0,1,2.05-4.62,7.1,7.1,0,0,1,5.06-1.92,7.91,7.91,0,0,1,3.68.9A13.15,13.15,0,0,1,235.76,275.2Z"/><path class="cls-2" d="M253.12,271a12.83,12.83,0,0,1,9.43,4,13.8,13.8,0,0,1,.06,19.27,13.5,13.5,0,0,1-19.13-.11A13.58,13.58,0,0,1,253.12,271Zm-.06,4.82a8.12,8.12,0,0,0-6,2.49,8.71,8.71,0,0,0-2.45,6.35,8.26,8.26,0,0,0,3.08,6.78,8.46,8.46,0,0,0,5.49,1.95,8,8,0,0,0,6-2.53,9.13,9.13,0,0,0,0-12.49A8.11,8.11,0,0,0,253.06,275.85Z"/><path class="cls-2" d="M271.48,271.68h5.21a17.23,17.23,0,0,1,6.1.76,6.31,6.31,0,0,1,2.93,2.54,7.89,7.89,0,0,1,1.1,4.21,7.12,7.12,0,0,1-1.22,4.26,7.37,7.37,0,0,1-3.68,2.59l6.12,11.5h-5.38l-5.81-11h-.45v11h-4.92Zm4.92,10.11h1.54a6,6,0,0,0,3.23-.62,2.32,2.32,0,0,0,.89-2.05,2.53,2.53,0,0,0-.44-1.47,2.39,2.39,0,0,0-1.17-.9,9,9,0,0,0-2.7-.27H276.4Z"/><path class="cls-2" d="M289.48,271.68h14.29v4.85h-4.71v21h-5v-21h-4.58Z"/><path class="cls-2" d="M306.79,271.68h4.89v25.86h-4.89Z"/><path class="cls-2" d="M317,271.68H322V288.4a8.51,8.51,0,0,0,.38,3.06,3.06,3.06,0,0,0,1.24,1.43,3.91,3.91,0,0,0,2.11.53,4.09,4.09,0,0,0,2.24-.59,3.21,3.21,0,0,0,1.3-1.52,11.32,11.32,0,0,0,.36-3.52V271.68h4.94V287.1a22.49,22.49,0,0,1-.44,5.41,7.87,7.87,0,0,1-1.68,2.92,7.77,7.77,0,0,1-2.86,2.08,9.7,9.7,0,0,1-3.76.68,9.08,9.08,0,0,1-4.89-1.29,7.5,7.5,0,0,1-3-3.24q-.9-1.94-.9-6.56Z"/><path class="cls-2" d="M342.77,271.68h4.79l6,18,6.05-18h4.79l4.34,25.86H364l-2.78-16.33-5.49,16.33h-4.34l-5.44-16.33-2.84,16.33h-4.8Z"/><path class="cls-2" d="M113.88,314.88h4.72l11.07,17v-17h4.92v25.86h-4.74l-11-17v17h-4.92Z"/><path class="cls-2" d="M148.38,314.88h5l9.95,25.86H158.2l-2-5.33H145.63l-2.1,5.33h-5.12Zm2.53,6.86-3.47,8.87h6.92Z"/><path class="cls-2" d="M164.58,314.88h14.29v4.85h-4.71v21h-5v-21h-4.58Z"/><path class="cls-2" d="M181.89,314.88h4.89v25.86h-4.89Z"/><path class="cls-2" d="M204.52,314.23a12.83,12.83,0,0,1,9.44,4,13.24,13.24,0,0,1,3.95,9.69,13.08,13.08,0,0,1-3.9,9.58,13.5,13.5,0,0,1-19.13-.11,13.59,13.59,0,0,1,9.64-23.13Zm-.05,4.82a8.14,8.14,0,0,0-6,2.49,8.7,8.7,0,0,0-2.44,6.35,8.23,8.23,0,0,0,3.08,6.78,8.42,8.42,0,0,0,5.49,1.95,8,8,0,0,0,6-2.53,9.1,9.1,0,0,0,0-12.49A8.09,8.09,0,0,0,204.47,319.05Z"/><path class="cls-2" d="M222.57,314.88h4.72l11.06,17v-17h4.92v25.86h-4.73l-11-17v17h-4.92Z"/><path class="cls-2" d="M257.07,314.88h5L272,340.74h-5.11l-2-5.33H254.31l-2.1,5.33H247.1Zm2.52,6.86-3.47,8.87H263Z"/><path class="cls-2" d="M275.81,314.88h4.92V336h7.17v4.7H275.81Z"/><path class="cls-2" d="M301.7,314.88h5.22a17.22,17.22,0,0,1,6.11.78,6.22,6.22,0,0,1,3,2.53,7.77,7.77,0,0,1,1.09,4.2,7.08,7.08,0,0,1-1.42,4.5,7.34,7.34,0,0,1-3.84,2.49,22,22,0,0,1-5.19.41v10.95H301.7ZM306.62,325h1.57a8.24,8.24,0,0,0,2.56-.27,2.21,2.21,0,0,0,1.14-.87,2.61,2.61,0,0,0,.41-1.47,2.35,2.35,0,0,0-1.16-2.19,6.61,6.61,0,0,0-3.13-.51h-1.39Z"/><path class="cls-2" d="M334.09,314.23a12.85,12.85,0,0,1,9.44,4,13.24,13.24,0,0,1,4,9.69,13.08,13.08,0,0,1-3.9,9.58,13.5,13.5,0,0,1-19.13-.11,13.59,13.59,0,0,1,9.64-23.13Zm0,4.82a8.12,8.12,0,0,0-6,2.49,8.7,8.7,0,0,0-2.44,6.35,8.25,8.25,0,0,0,3.07,6.78,8.46,8.46,0,0,0,5.49,1.95,8,8,0,0,0,6-2.53,9.13,9.13,0,0,0,0-12.49A8.09,8.09,0,0,0,334,319.05Z"/><path class="cls-2" d="M351.94,314.88h4.94V331.6a8.74,8.74,0,0,0,.38,3.06,3.08,3.08,0,0,0,1.25,1.43,3.9,3.9,0,0,0,2.1.53,4.09,4.09,0,0,0,2.24-.59,3.21,3.21,0,0,0,1.3-1.52,11.32,11.32,0,0,0,.36-3.52V314.88h4.94V330.3a22.49,22.49,0,0,1-.44,5.41,7.6,7.6,0,0,1-1.68,2.92,7.77,7.77,0,0,1-2.86,2.08,9.67,9.67,0,0,1-3.76.68,9.1,9.1,0,0,1-4.89-1.29,7.5,7.5,0,0,1-3-3.24q-.9-1.94-.9-6.56Z"/><path class="cls-2" d="M375.5,314.88h5.21a17.23,17.23,0,0,1,6.1.76,6.24,6.24,0,0,1,2.92,2.54,7.8,7.8,0,0,1,1.11,4.21,7.19,7.19,0,0,1-1.22,4.26,7.41,7.41,0,0,1-3.68,2.59l6.12,11.5h-5.38l-5.81-10.95h-.45v10.95H375.5ZM380.42,325H382a6,6,0,0,0,3.23-.62,2.32,2.32,0,0,0,.89-2.05,2.53,2.53,0,0,0-.44-1.47,2.37,2.37,0,0,0-1.18-.9,8.93,8.93,0,0,0-2.69-.27h-1.35Z"/><path class="cls-2" d="M96.57,358.08h4.92v21.16h7.17v4.7H96.57Z"/><path class="cls-2" d="M120.29,358.08h5l9.95,25.86h-5.12l-2-5.33H117.54l-2.1,5.33h-5.12Zm2.53,6.86-3.47,8.87h6.92Z"/><path class="cls-2" d="M172.87,362.62l-3.44,3.29a10.65,10.65,0,0,0-7.9-3.72,8.66,8.66,0,0,0-8.78,8.78,9.25,9.25,0,0,0,1.12,4.6,8.16,8.16,0,0,0,3.18,3.15,9.25,9.25,0,0,0,4.57,1.14,9.46,9.46,0,0,0,3.91-.8,14.4,14.4,0,0,0,3.9-2.91l3.34,3.48a18.4,18.4,0,0,1-5.42,3.88,14.79,14.79,0,0,1-5.81,1.08,13.39,13.39,0,0,1-9.87-3.83,13.18,13.18,0,0,1-3.85-9.8,13.5,13.5,0,0,1,1.75-6.87,13.09,13.09,0,0,1,5-4.83,14.16,14.16,0,0,1,7-1.83,14.88,14.88,0,0,1,11.26,5.19Z"/><path class="cls-2" d="M175.34,358.08h5.29l4.82,9.3,4.8-9.3h5.22l-7.57,14.66v11.2h-5v-11.2Z"/><path class="cls-2" d="M199.5,383.94V358.08h4.07a20.72,20.72,0,0,1,5.17.46,7,7,0,0,1,3.7,2.28,6.06,6.06,0,0,1,1.37,3.94,5.81,5.81,0,0,1-.62,2.68,6.84,6.84,0,0,1-2,2.26,8,8,0,0,1,3.44,2.77,7,7,0,0,1,1.09,3.93,7.33,7.33,0,0,1-1.12,4,7.19,7.19,0,0,1-2.91,2.68,11.16,11.16,0,0,1-4.91.89Zm4.93-21.17v5.45h1.07a4.06,4.06,0,0,0,2.68-.75,2.6,2.6,0,0,0,.87-2.06,2.4,2.4,0,0,0-.83-1.92,3.75,3.75,0,0,0-2.52-.72Zm0,9.85v6.62h1.23c2,0,3.42-.25,4.13-.77a2.6,2.6,0,0,0,1.07-2.25,3.18,3.18,0,0,0-1.25-2.64,7,7,0,0,0-4.16-1Z"/><path class="cls-2" d="M220.4,358.08h14.12v4.82h-9.23v4.67h9.23v4.73h-9.23v6.8h9.23v4.84H220.4Z"/><path class="cls-2" d="M239.44,358.08h5.22a17.27,17.27,0,0,1,6.1.76,6.28,6.28,0,0,1,2.92,2.54,7.8,7.8,0,0,1,1.11,4.21,7.17,7.17,0,0,1-1.22,4.26,7.44,7.44,0,0,1-3.69,2.59l6.13,11.5h-5.38L244.81,373h-.45v10.95h-4.92Zm4.92,10.11h1.55a6,6,0,0,0,3.23-.62,2.31,2.31,0,0,0,.88-2.05,2.46,2.46,0,0,0-.44-1.47,2.39,2.39,0,0,0-1.17-.9,9,9,0,0,0-2.7-.27h-1.35Z"/><path class="cls-2" d="M273.56,361.6l-3.64,3.21c-1.28-1.78-2.59-2.67-3.91-2.67a2.36,2.36,0,0,0-1.59.52,1.5,1.5,0,0,0-.62,1.17,2,2,0,0,0,.45,1.23,33.51,33.51,0,0,0,3.6,3.32q2.82,2.36,3.42,3a10.14,10.14,0,0,1,2.12,2.89,7.2,7.2,0,0,1,.63,3,6.92,6.92,0,0,1-2.2,5.25,8,8,0,0,1-5.74,2.08,8.46,8.46,0,0,1-4.81-1.36,10.63,10.63,0,0,1-3.51-4.25l4.13-2.5q1.88,3.43,4.3,3.43a3.11,3.11,0,0,0,2.13-.74,2.17,2.17,0,0,0,.86-1.7,2.91,2.91,0,0,0-.65-1.76,18.47,18.47,0,0,0-2.87-2.69,28.86,28.86,0,0,1-5.46-5.32A6.73,6.73,0,0,1,259,364a6.12,6.12,0,0,1,2-4.62,7.12,7.12,0,0,1,5.06-1.92,8,8,0,0,1,3.69.9A13.13,13.13,0,0,1,273.56,361.6Z"/><path class="cls-2" d="M278.73,358.08h14.11v4.82h-9.22v4.67h9.22v4.73h-9.22v6.8h9.22v4.84H278.73Zm7.93-8.89h5.67l-6.43,6.89h-3.44Z"/><path class="cls-2" d="M321.2,362.62l-3.45,3.29a10.64,10.64,0,0,0-7.9-3.72,8.67,8.67,0,0,0-8.78,8.78,9.35,9.35,0,0,0,1.12,4.6,8.16,8.16,0,0,0,3.18,3.15,9.28,9.28,0,0,0,4.57,1.14,9.51,9.51,0,0,0,3.92-.8,14.22,14.22,0,0,0,3.89-2.91l3.34,3.48a18.37,18.37,0,0,1-5.41,3.88,14.8,14.8,0,0,1-5.82,1.08,13.39,13.39,0,0,1-9.87-3.83,13.21,13.21,0,0,1-3.84-9.8,13.4,13.4,0,0,1,1.75-6.87,13,13,0,0,1,5-4.83,14.09,14.09,0,0,1,7-1.83,14.92,14.92,0,0,1,11.27,5.19Z"/><path class="cls-2" d="M325.33,358.08h4.94V374.8a8.51,8.51,0,0,0,.38,3.06,3.06,3.06,0,0,0,1.24,1.43,3.9,3.9,0,0,0,2.1.53,4.19,4.19,0,0,0,2.25-.59,3.21,3.21,0,0,0,1.3-1.52,11.32,11.32,0,0,0,.36-3.52V358.08h4.94V373.5a22.49,22.49,0,0,1-.44,5.41,7.87,7.87,0,0,1-1.68,2.92,7.77,7.77,0,0,1-2.86,2.08,9.7,9.7,0,0,1-3.76.68,9.12,9.12,0,0,1-4.9-1.29,7.62,7.62,0,0,1-3-3.24,17.22,17.22,0,0,1-.89-6.56Z"/><path class="cls-2" d="M348.88,358.08h5.22a17.27,17.27,0,0,1,6.1.76,6.28,6.28,0,0,1,2.92,2.54,7.8,7.8,0,0,1,1.11,4.21,7.17,7.17,0,0,1-1.22,4.26,7.46,7.46,0,0,1-3.68,2.59l6.12,11.5h-5.38L354.25,373h-.45v10.95h-4.92Zm4.92,10.11h1.55a6,6,0,0,0,3.23-.62,2.31,2.31,0,0,0,.88-2.05,2.52,2.52,0,0,0-.43-1.47,2.46,2.46,0,0,0-1.18-.9,9,9,0,0,0-2.7-.27H353.8Z"/><path class="cls-2" d="M369.08,358.08H374v25.86h-4.89Z"/><path class="cls-2" d="M377,358.08h14.29v4.85h-4.71v21h-5v-21H377Z"/><path class="cls-2" d="M394.64,358.08h14.11v4.82h-9.22v4.67h9.22v4.73h-9.22v6.8h9.22v4.84H394.64Zm7.93-8.89h5.67l-6.43,6.89h-3.44Z"/><path class="cls-3" d="M252.67,253.47H220.32a16.1,16.1,0,0,1,0-32.19h32.35a16.1,16.1,0,0,1,0,32.19Zm-32.35-28.19a12.1,12.1,0,0,0,0,24.19h32.35a12.1,12.1,0,0,0,0-24.19Z"/><path class="cls-3" d="M294.46,259.6H262.11a16.1,16.1,0,0,1,0-32.19h32.35a16.1,16.1,0,0,1,0,32.19Zm-32.35-28.19a12.1,12.1,0,0,0,0,24.19h32.35a12.1,12.1,0,0,0,0-24.19Z"/><rect class="cls-3" x="123.18" y="235.44" width="83.04" height="4"/><rect class="cls-3" x="163.47" y="216.08" width="4" height="23.32" transform="translate(-99.45 132.54) rotate(-34.23)"/><rect class="cls-3" x="118.87" y="178.92" width="4" height="79.3" transform="translate(-98.74 337.54) rotate(-89.5)"/><rect class="cls-3" x="64.71" y="255.6" width="100.24" height="4"/><rect class="cls-3" x="155.99" y="246.09" width="23.19" height="4" transform="translate(-125.72 308.1) rotate(-67.52)"/><path class="cls-3" d="M117.32,244.57a7.87,7.87,0,1,1,7.86-7.86A7.88,7.88,0,0,1,117.32,244.57Zm0-11.73a3.87,3.87,0,1,0,3.86,3.87A3.88,3.88,0,0,0,117.32,232.84Z"/><path class="cls-3" d="M76.33,225.28a7.87,7.87,0,1,1,7.87-7.86A7.88,7.88,0,0,1,76.33,225.28Zm0-11.73a3.87,3.87,0,1,0,3.87,3.87A3.88,3.88,0,0,0,76.33,213.55Z"/><path class="cls-3" d="M57.68,265.46a7.87,7.87,0,1,1,7.87-7.86A7.87,7.87,0,0,1,57.68,265.46Zm0-11.73a3.87,3.87,0,1,0,3.87,3.87A3.86,3.86,0,0,0,57.68,253.73Z"/><rect class="cls-3" x="351.81" y="221.64" width="73.12" height="4" transform="matrix(1, -0.01, 0.01, 1, -2.06, 3.61)"/><rect class="cls-3" x="309.84" y="240.51" width="76.46" height="4"/><rect class="cls-3" x="335.97" y="230.76" width="22.86" height="4" transform="matrix(0.53, -0.85, 0.85, 0.53, -34.28, 403.57)"/><rect class="cls-3" x="347.71" y="260.66" width="92.43" height="4"/><rect class="cls-3" x="343.43" y="241.69" width="4" height="23.03" transform="translate(-67.53 139.64) rotate(-20.87)"/><path class="cls-3" d="M391.7,249.64a7.88,7.88,0,1,1,7.4-7.87A7.65,7.65,0,0,1,391.7,249.64Zm0-11.73a3.9,3.9,0,1,0,3.4,3.86A3.66,3.66,0,0,0,391.7,237.91Z"/><path class="cls-3" d="M429.44,230.35a7.88,7.88,0,1,1,7.4-7.87A7.65,7.65,0,0,1,429.44,230.35Zm0-11.73a3.9,3.9,0,1,0,3.4,3.86A3.65,3.65,0,0,0,429.44,218.62Z"/><path class="cls-3" d="M446.61,270.53a7.88,7.88,0,1,1,7.4-7.87A7.65,7.65,0,0,1,446.61,270.53Zm0-11.73a3.9,3.9,0,1,0,3.4,3.86A3.65,3.65,0,0,0,446.61,258.8Z"/></svg>